<svg width="702.5" height="489.1" xmlns="http://www.w3.org/2000/svg">

 <g>
  <title>background</title>
  <rect fill="none" id="canvas_background" height="402" width="582" y="-1" x="-1"/>
 </g>
 <g>
  <title>Layer 1</title>
  <path id="svg_1" d="m700.8,487.4l-700,0l0,-478.6c0,-4.4 3.6,-8 8,-8l684,0c4.4,0 8,3.6 8,8l0,478.6z" stroke-miterlimit="10" stroke-width="2" stroke="#FFFEDF" fill="none"/>
  <circle id="svg_2" r="4.9" cy="17.1" cx="25.2" stroke-miterlimit="10" stroke-width="2" stroke="#FFFEDF" fill="none"/>
  <circle id="svg_3" r="4.9" cy="17.1" cx="42.4" stroke-miterlimit="10" stroke-width="2" stroke="#FFFEDF" fill="none"/>
  <circle id="svg_4" r="4.9" cy="17.1" cx="59.5" stroke-miterlimit="10" stroke-width="2" stroke="#FFFEDF" fill="none"/>
  <g id="svg_5">
   <g id="svg_6">
    <line id="svg_7" y2="44" x2="692.5" y1="44" x1="676.9" stroke-miterlimit="10" stroke-linejoin="round" stroke-linecap="round" stroke-width="2" stroke="#FFFEDF" fill="none"/>
    <line id="svg_8" y2="49.8" x2="692.5" y1="49.8" x1="676.9" stroke-miterlimit="10" stroke-linejoin="round" stroke-linecap="round" stroke-width="2" stroke="#FFFEDF" fill="none"/>
    <line id="svg_9" y2="55.6" x2="692.5" y1="55.6" x1="676.9" stroke-miterlimit="10" stroke-linejoin="round" stroke-linecap="round" stroke-width="2" stroke="#FFFEDF" fill="none"/>
   </g>
  </g>
  <g id="svg_10">
   <g id="svg_11">
    <g id="svg_12">
     <polyline id="svg_13" points="     17.2,57.2 9.7,49.8 17.2,42.3    " stroke-miterlimit="10" stroke-linejoin="round" stroke-linecap="round" stroke-width="2" stroke="#FFFEDF" fill="none"/>
    </g>
    <line id="svg_14" y2="49.8" x2="25" y1="49.8" x1="9.7" stroke-miterlimit="10" stroke-linejoin="round" stroke-linecap="round" stroke-width="2" stroke="#FFFEDF" fill="none"/>
   </g>
   <g id="svg_15">
    <g id="svg_16">
     <polyline id="svg_17" points="     44.4,42.3 51.8,49.8 44.3,57.2    " stroke-miterlimit="10" stroke-linejoin="round" stroke-linecap="round" stroke-width="2" stroke="#FFFEDF" fill="none"/>
    </g>
    <line id="svg_18" y2="49.8" x2="36.5" y1="49.8" x1="51.8" stroke-miterlimit="10" stroke-linejoin="round" stroke-linecap="round" stroke-width="2" stroke="#FFFEDF" fill="none"/>
   </g>
   <g id="svg_19">
    <path id="svg_20" d="m75.2,54.5c-1,0.7 -2.2,1.2 -3.6,1.2c-3.3,0 -5.9,-2.6 -5.9,-5.9s2.6,-5.9 5.9,-5.9c2.5,0 4.7,1.6 5.5,3.9" stroke-miterlimit="10" stroke-linecap="round" stroke-width="2" stroke="#FFFEDF" fill="none"/>
    <polygon id="svg_21" points="    74,48.9 78.7,44.2 78.7,48.9   " stroke-miterlimit="10" stroke-linejoin="round" stroke-linecap="round" stroke-width="2" stroke="#FFFEDF" fill="#FFFEDF"/>
   </g>
  </g>
  <path id="svg_22" d="m665.6,61.3l-570.5,0c-1.1,0 -2,-0.9 -2,-2l0,-19c0,-1.1 0.9,-2 2,-2l570.5,0c1.1,0 2,0.9 2,2l0,19c0,1.1 -0.9,2 -2,2z" stroke-miterlimit="10" stroke-width="2" stroke="#FFFEDF" fill="none"/>
  <path id="svg_23" d="m284.5,32.7l416.3,0l0,34.2l-700,0l0,-34.2l76.1,0c0,0 2,-0.1 3,-2.3c1,-2.2 6.7,-17.4 8.1,-19.4c1,-1.5 2.5,-2.3 3.5,-2.3c2.3,0 32.8,0 32.8,0l113,0c0,0 30.5,0 32.8,0c1,0 2.5,0.8 3.5,2.3c1.4,2 7.1,17.3 8.1,19.4s2.8,2.3 2.8,2.3z" stroke-miterlimit="10" stroke-width="2" stroke="#FFFEDF" fill="none"/>
  <path id="svg_24" d="m309.4,26.8l-20.8,0c-0.9,0 -1.7,-0.5 -2,-1.4l-4.2,-10.4c-0.6,-1.4 0.5,-3 2,-3l20.8,0c0.9,0 1.7,0.5 2,1.4l4.2,10.4c0.6,1.5 -0.4,3 -2,3z" stroke-miterlimit="10" stroke-width="2" stroke="#FFFEDF" fill="none"/>
 </g>
</svg>